<?xml version="1.0" standalone="no"?>
<!DOCTYPE svg PUBLIC "-//W3C//DTD SVG 20010904//EN"
 "http://www.w3.org/TR/2001/REC-SVG-20010904/DTD/svg10.dtd">
<svg version="1.0" xmlns="http://www.w3.org/2000/svg"
 width="823.000000pt" height="822.000000pt" viewBox="0 0 823.000000 822.000000"
 preserveAspectRatio="xMidYMid meet">

<g transform="translate(0.000000,822.000000) scale(0.100000,-0.100000)"
fill="#000000" stroke="none">
<path d="M2052 8213 c1131 -2 2985 -2 4120 0 1135 1 209 2 -2057 2 -2266 0
-3194 -1 -2063 -2z"/>
<path d="M4428 4771 l-33 -29 -6 -209 c-4 -114 -7 -353 -8 -530 l-1 -321 25
-30 c30 -36 73 -48 117 -32 49 16 69 51 77 132 l6 71 53 -42 c79 -63 164 -111
195 -111 63 0 107 46 107 111 0 47 -14 64 -98 120 -42 28 -89 63 -104 76 l-27
26 57 76 c71 97 146 220 168 276 13 36 14 49 4 80 -20 62 -92 92 -149 62 -14
-7 -58 -68 -105 -146 -45 -74 -85 -136 -91 -138 -7 -2 -9 82 -7 243 3 177 0
255 -9 275 -30 73 -113 92 -171 40z"/>
<path d="M2353 4745 c-27 -12 -47 -44 -157 -262 -154 -304 -188 -363 -194
-343 -17 53 -237 509 -255 529 -51 55 -133 62 -177 16 -13 -13 -27 -43 -32
-67 -4 -24 -11 -237 -15 -473 l-6 -430 27 -32 c32 -38 79 -50 129 -34 61 21
67 47 67 307 0 125 2 225 5 222 3 -3 39 -76 80 -163 41 -86 81 -165 90 -175
27 -29 87 -44 128 -31 45 15 55 28 113 136 26 50 62 117 81 150 l33 60 0 -74
c0 -111 20 -351 32 -389 12 -39 59 -72 103 -72 41 0 93 34 101 65 3 14 1 96
-5 183 -14 200 -14 313 1 590 13 252 11 261 -54 286 -46 19 -54 19 -95 1z"/>
<path d="M5424 4680 c-101 -21 -211 -105 -257 -196 -65 -129 -61 -288 14 -520
62 -195 165 -284 329 -284 167 0 317 96 369 236 37 96 24 259 -34 450 -49 162
-105 243 -198 289 -58 28 -155 39 -223 25z m153 -436 c-3 -3 -12 -4 -19 -1 -8
3 -5 6 6 6 11 1 17 -2 13 -5z m-146 -160 c62 -32 166 -35 250 -9 17 6 19 1 19
-41 0 -65 -30 -124 -78 -151 -52 -29 -106 -38 -142 -23 -50 21 -105 128 -135
264 l-6 29 32 -27 c17 -15 44 -33 60 -42z"/>
<path d="M6326 4580 c-63 -25 -110 -70 -144 -140 -24 -49 -27 -66 -27 -160 0
-93 3 -112 26 -160 41 -85 85 -133 197 -210 83 -58 101 -74 92 -85 -21 -25
-90 -27 -168 -6 -99 26 -133 17 -162 -45 -20 -41 -21 -48 -8 -82 28 -75 162
-114 318 -94 170 23 271 104 272 219 0 86 -53 156 -186 245 -50 33 -102 70
-114 82 -56 50 -77 138 -47 195 27 53 79 55 155 6 72 -46 110 -47 156 -1 60
60 42 129 -48 189 -103 68 -215 85 -312 47z"/>
<path d="M3043 4505 c-86 -24 -134 -54 -206 -127 -79 -80 -125 -166 -158 -297
-61 -241 37 -425 226 -426 80 0 156 38 245 122 l68 64 16 -55 c42 -142 74
-185 142 -186 50 0 88 27 103 73 10 28 7 46 -19 122 -56 166 -74 334 -50 479
11 69 0 97 -58 151 -84 79 -204 110 -309 80z m111 -211 c11 -4 16 -19 16 -45
0 -111 -129 -311 -237 -368 -57 -30 -75 29 -44 149 24 96 58 160 113 212 47
46 111 68 152 52z"/>
<path d="M3703 4501 c-17 -11 -34 -28 -37 -38 -39 -124 -32 -674 11 -756 19
-39 68 -58 117 -47 64 14 89 63 80 154 -14 139 36 309 111 375 43 38 59 39 81
6 9 -14 33 -29 55 -35 56 -15 114 15 129 67 14 48 4 78 -47 134 -76 84 -177
102 -277 50 l-56 -30 0 29 c0 90 -88 138 -167 91z"/>
<path d="M5968 3675 c-66 -63 -143 -109 -223 -135 -22 -7 -44 -15 -50 -18 -16
-10 -43 -11 -170 -12 -193 0 -284 21 -466 109 -47 22 -92 41 -100 41 -9 0 -25
-9 -37 -20 -23 -21 -30 -50 -12 -50 5 0 9 -5 7 -11 -3 -15 142 -89 248 -126
119 -42 172 -51 333 -60 150 -7 316 35 437 113 60 39 155 126 155 143 0 7 5 9
10 6 6 -3 11 0 12 7 0 7 2 20 3 28 2 24 -26 50 -54 50 -18 -1 -47 -20 -93 -65z"/>
<path d="M2790 3552 c0 -5 11 -14 25 -20 29 -13 33 -5 8 14 -21 15 -33 18 -33
6z"/>
<path d="M1990 3420 c0 -53 4 -90 10 -90 6 0 10 27 10 62 0 69 5 69 35 -3 12
-28 26 -51 31 -52 5 -1 21 23 36 53 l27 55 2 -40 c1 -22 2 -47 3 -55 1 -8 6
-14 11 -13 6 2 11 41 13 88 4 109 -13 113 -57 13 l-32 -73 -34 73 c-19 39 -39
72 -44 72 -7 0 -11 -33 -11 -90z"/>
<path d="M2210 3420 c0 -53 4 -90 10 -90 6 0 10 37 10 90 0 53 -4 90 -10 90
-6 0 -10 -37 -10 -90z"/>
<path d="M2269 3495 c-5 -79 1 -169 10 -159 6 5 11 36 13 69 l3 60 43 -67 c24
-38 48 -68 53 -68 5 0 9 41 9 90 0 105 -18 123 -22 23 l-3 -67 -44 67 c-43 66
-60 81 -62 52z"/>
<path d="M2440 3420 c0 -53 4 -90 10 -90 6 0 10 37 10 90 0 53 -4 90 -10 90
-6 0 -10 -37 -10 -90z"/>
<path d="M2512 3498 c-7 -7 -12 -24 -12 -39 0 -23 7 -30 45 -45 37 -14 45 -21
43 -38 -4 -26 -40 -33 -61 -12 -20 20 -27 20 -27 1 0 -33 82 -41 102 -11 21
31 8 57 -38 76 -33 14 -45 25 -42 37 3 20 58 32 58 14 0 -6 7 -11 15 -11 8 0
15 4 15 8 0 17 -25 32 -55 32 -17 0 -36 -5 -43 -12z"/>
<path d="M2630 3500 c0 -5 11 -10 25 -10 25 0 25 -1 25 -80 0 -47 4 -80 10
-80 6 0 10 33 10 80 0 79 0 80 25 80 14 0 25 5 25 10 0 6 -27 10 -60 10 -33 0
-60 -4 -60 -10z"/>
<path d="M2772 3423 l3 -88 43 -3 c25 -2 42 1 42 7 0 6 -16 11 -35 11 -32 0
-35 2 -35 30 0 27 3 30 29 30 17 0 33 5 36 10 4 6 -8 10 -29 10 -33 0 -36 2
-36 30 0 28 3 30 35 30 19 0 35 5 35 10 0 6 -20 10 -45 10 l-46 0 3 -87z"/>
<path d="M2890 3426 c0 -47 5 -88 10 -91 6 -3 10 0 11 7 1 7 2 24 2 37 3 39
24 35 52 -8 14 -23 30 -41 35 -41 14 0 13 5 -10 42 -19 32 -19 32 0 45 11 8
20 25 20 38 0 36 -26 55 -76 55 l-44 0 0 -84z m96 42 c8 -25 -20 -50 -51 -46
-15 2 -21 12 -23 36 -3 31 -2 32 32 32 27 0 36 -5 42 -22z"/>
<path d="M3040 3420 l0 -90 44 0 c25 0 48 5 51 10 4 6 -10 10 -34 10 -39 0
-41 2 -41 30 0 28 3 30 35 30 19 0 35 5 35 10 0 6 -16 10 -35 10 -32 0 -35 2
-35 30 0 28 2 30 40 30 22 0 40 5 40 10 0 6 -22 10 -50 10 l-50 0 0 -90z"/>
<path d="M3240 3425 c0 -95 5 -102 64 -91 56 11 81 37 81 86 0 57 -37 90 -101
90 l-44 0 0 -85z m102 48 c22 -20 24 -85 4 -102 -8 -7 -30 -15 -50 -18 l-36
-6 0 72 0 71 32 0 c17 0 40 -7 50 -17z"/>
<path d="M3418 3498 c-3 -7 -3 -40 -2 -73 2 -33 3 -68 3 -77 1 -14 10 -18 40
-18 22 0 43 5 46 10 4 6 -8 10 -29 10 -33 0 -36 2 -36 30 0 27 3 30 30 30 17
0 30 5 30 10 0 6 -13 10 -30 10 -27 0 -30 3 -30 30 0 28 3 30 35 30 19 0 35 5
35 10 0 15 -87 12 -92 -2z"/>
<path d="M3548 3499 c-21 -12 -24 -52 -5 -66 6 -6 26 -15 42 -20 22 -7 30 -16
30 -34 0 -30 -29 -37 -56 -13 -10 9 -22 14 -27 10 -10 -10 36 -46 59 -46 25 0
61 37 57 58 -2 9 -23 27 -48 39 -29 14 -45 28 -45 40 0 22 39 30 61 12 19 -16
30 -4 14 16 -14 17 -56 19 -82 4z"/>
<path d="M3817 3503 c-4 -3 -7 -37 -7 -74 0 -74 -11 -91 -41 -63 -22 19 -33
15 -23 -10 10 -25 51 -31 74 -11 16 15 20 31 20 92 0 67 -6 84 -23 66z"/>
<path d="M3882 3423 l3 -88 43 -3 c25 -2 42 1 42 7 0 6 -16 11 -35 11 -32 0
-35 2 -35 30 0 27 3 30 30 30 17 0 30 5 30 10 0 6 -13 10 -30 10 -27 0 -30 3
-30 30 0 28 3 30 35 30 19 0 35 5 35 10 0 6 -20 10 -45 10 l-46 0 3 -87z"/>
<path d="M4000 3435 c0 -68 2 -76 25 -91 30 -19 81 -11 95 16 13 24 13 150 0
150 -6 0 -10 -28 -10 -64 0 -84 -23 -111 -71 -86 -16 9 -19 22 -19 80 0 40 -4
70 -10 70 -6 0 -10 -32 -10 -75z"/>
<path d="M4170 3420 c0 -105 18 -123 22 -23 l3 67 44 -67 c24 -37 48 -66 54
-64 8 2 10 33 8 147 -2 58 -20 29 -23 -35 l-3 -65 -44 65 c-24 36 -47 65 -52
65 -5 0 -9 -40 -9 -90z"/>
<path d="M4342 3423 l3 -88 33 -3 c52 -5 76 10 27 17 -35 5 -40 10 -43 34 -3
25 -1 27 32 27 20 0 36 5 36 10 0 6 -16 10 -35 10 -32 0 -35 2 -35 30 0 28 2
30 40 30 22 0 40 5 40 10 0 6 -23 10 -50 10 l-51 0 3 -87z"/>
<path d="M4472 3498 c-16 -16 -15 -53 1 -65 6 -6 26 -15 42 -20 32 -10 45 -40
23 -54 -20 -13 -35 -11 -53 7 -18 18 -30 13 -22 -10 8 -19 61 -30 86 -16 14 7
21 21 21 41 0 26 -6 32 -45 49 -46 20 -59 45 -29 57 8 3 27 0 41 -6 30 -14 41
-8 23 14 -15 18 -71 20 -88 3z"/>
</g>
</svg>
