<?xml version="1.0" standalone="no"?>
<!DOCTYPE svg PUBLIC "-//W3C//DTD SVG 20010904//EN"
 "http://www.w3.org/TR/2001/REC-SVG-20010904/DTD/svg10.dtd">
<svg version="1.0" xmlns="http://www.w3.org/2000/svg"
 width="764.000000pt" height="830.000000pt" viewBox="0 0 764.000000 830.000000"
 preserveAspectRatio="xMidYMid meet">

<g transform="translate(0.000000,830.000000) scale(0.100000,-0.100000)"
fill="#000000" stroke="none">
<path d="M0 4150 l0 -4150 3820 0 3820 0 0 4150 0 4150 -3820 0 -3820 0 0
-4150z m2155 3919 c99 -27 189 -81 270 -163 92 -93 136 -168 165 -282 102
-397 -196 -784 -603 -784 -268 0 -504 172 -592 431 -34 99 -36 283 -4 380 67
204 210 348 414 415 50 16 294 18 350 3z m-1133 -128 c-17 -98 -15 -328 3
-466 56 -424 244 -779 471 -886 68 -33 176 -59 244 -59 44 0 156 18 251 39 66
15 339 112 436 155 45 20 84 36 88 36 7 0 60 24 190 85 429 203 890 306 1375
308 197 1 278 -5 475 -34 316 -46 609 -132 895 -264 739 -340 1316 -932 1645
-1690 90 -207 186 -530 214 -720 7 -44 16 -105 21 -135 39 -227 39 -641 0
-870 -5 -30 -14 -86 -20 -125 -6 -38 -15 -88 -20 -110 -142 -634 -404 -1129
-855 -1613 -115 -124 -447 -394 -581 -474 -31 -18 -68 -41 -83 -50 -120 -77
-367 -196 -542 -262 -312 -116 -597 -174 -971 -198 -356 -22 -730 21 -1088
125 -98 28 -282 94 -355 126 -27 13 -81 37 -120 54 -151 68 -573 319 -583 348
-2 5 -8 9 -12 9 -11 0 -121 83 -230 173 -111 93 -396 378 -490 492 -41 50 -78
92 -81 95 -17 15 -176 232 -246 335 -147 219 -280 459 -373 675 -18 41 -38 89
-46 105 -90 201 -193 542 -263 865 -153 717 -138 1651 39 2418 6 23 15 62 20
87 67 301 219 759 345 1040 42 94 217 449 228 463 22 28 30 -6 19 -77z"/>
<path d="M3880 6690 c-512 -34 -1009 -212 -1435 -514 -177 -126 -414 -348
-551 -516 -58 -72 -204 -276 -204 -285 0 -3 -16 -29 -35 -59 -84 -132 -210
-413 -260 -581 -10 -33 -26 -86 -36 -118 -23 -72 -64 -273 -80 -392 -17 -121
-17 -561 0 -695 28 -234 115 -564 194 -742 8 -18 30 -67 48 -108 201 -452 587
-897 1029 -1185 527 -344 1180 -504 1800 -440 387 39 699 131 1026 299 434
224 801 554 1069 961 147 224 237 409 323 670 59 177 84 282 111 465 51 350
50 520 -10 910 -27 173 -98 419 -172 596 -251 594 -685 1080 -1242 1391 -88
49 -285 143 -300 143 -4 0 -21 7 -38 15 -110 50 -366 122 -552 154 -188 32
-477 45 -685 31z m510 -175 c308 -36 584 -118 875 -261 245 -120 375 -210 610
-418 163 -146 278 -279 416 -481 98 -145 193 -315 214 -385 4 -14 13 -31 19
-39 14 -17 19 -31 83 -227 61 -186 89 -305 103 -429 6 -49 15 -115 20 -146 13
-72 13 -444 0 -523 -5 -33 -14 -101 -20 -151 -6 -49 -15 -106 -20 -125 -5 -19
-19 -73 -31 -120 -27 -107 -98 -322 -110 -335 -5 -5 -9 -15 -9 -22 0 -15 -117
-254 -163 -333 -146 -249 -362 -503 -591 -694 -61 -50 -120 -98 -132 -106 -83
-57 -177 -118 -209 -136 -11 -6 -57 -31 -101 -56 -45 -25 -115 -60 -155 -78
-41 -17 -82 -36 -91 -41 -71 -37 -268 -96 -493 -150 -93 -22 -226 -32 -478
-36 -355 -6 -456 6 -767 88 -281 75 -501 179 -791 376 -286 194 -572 500 -771
823 -51 83 -164 319 -206 430 -98 260 -152 551 -159 870 -5 215 -2 275 28 485
18 129 89 408 124 490 7 17 25 56 39 89 14 32 26 66 26 75 0 9 4 21 9 26 5 6
29 48 53 95 78 150 247 417 281 445 7 6 32 35 57 65 50 61 139 158 185 201
143 133 269 239 284 239 5 0 11 3 13 8 4 9 181 130 203 139 10 3 55 27 100 53
45 26 93 51 106 55 13 4 49 20 79 35 113 55 419 149 610 186 166 32 561 42
760 19z"/>
<path d="M3820 6459 c-178 -20 -272 -39 -452 -90 -355 -101 -656 -261 -943
-500 -105 -88 -314 -303 -390 -402 -273 -356 -436 -731 -517 -1182 -20 -115
-23 -162 -23 -405 0 -280 4 -328 50 -555 53 -258 169 -555 306 -782 368 -610
951 -1039 1629 -1201 372 -89 694 -96 1110 -23 256 45 656 202 847 332 23 16
44 29 47 29 6 0 102 68 196 138 77 58 221 192 323 302 195 209 353 458 487
764 42 95 121 354 140 456 6 36 13 74 16 85 34 155 45 553 19 755 -94 753
-499 1417 -1125 1844 -309 210 -683 359 -1045 415 -200 31 -498 40 -675 20z
m259 -159 c2 -14 -7 -97 -19 -185 -28 -194 -58 -277 -155 -426 -213 -325 -269
-512 -215 -708 54 -192 261 -373 488 -427 95 -22 292 -28 467 -14 237 19 500
24 580 10 186 -31 359 -106 471 -203 166 -144 231 -193 326 -246 90 -51 155
-43 189 22 18 32 39 208 39 317 0 170 25 260 83 304 20 15 30 17 38 9 20 -20
61 -151 118 -383 5 -19 14 -73 20 -120 6 -47 15 -120 21 -163 13 -98 13 -347
0 -435 -5 -37 -14 -107 -21 -157 -44 -349 -205 -745 -429 -1057 -82 -115 -230
-282 -282 -319 l-29 -21 17 38 c72 166 72 322 -1 539 -72 217 -122 325 -235
516 -128 215 -172 305 -177 367 -7 79 8 107 110 212 74 76 87 94 87 122 0 47
-20 71 -85 102 -74 37 -172 49 -335 43 -116 -5 -148 -10 -229 -37 -111 -37
-173 -67 -259 -126 -99 -68 -181 -80 -254 -36 -34 20 -98 99 -179 222 -171
261 -292 256 -473 -22 -102 -157 -146 -278 -153 -420 -6 -110 10 -180 75 -323
163 -360 458 -683 719 -788 71 -28 88 -31 188 -31 83 1 129 6 190 23 44 13
122 25 174 28 168 10 193 -21 236 -292 22 -137 37 -181 77 -224 67 -72 184
-95 291 -57 57 19 76 13 50 -16 -31 -34 -272 -190 -388 -250 -169 -88 -398
-172 -565 -209 -25 -6 -63 -14 -85 -19 -213 -51 -729 -52 -955 -2 -44 10 -48
31 -19 98 47 109 69 228 69 376 0 76 -4 158 -9 181 -6 23 -17 87 -25 142 -39
250 -125 440 -274 606 -76 83 -228 212 -405 343 -227 166 -314 214 -477 258
-76 21 -106 23 -280 22 -193 0 -196 -1 -335 -38 -77 -21 -149 -39 -160 -39
-17 -2 -21 8 -31 68 -35 213 -45 488 -21 614 l12 64 59 33 c125 69 298 92 429
58 133 -34 235 -102 407 -270 104 -102 157 -142 201 -151 71 -14 104 27 115
142 3 39 1 221 -5 405 -18 511 -13 531 200 744 148 148 169 177 212 291 29 75
31 88 32 225 0 158 -6 194 -76 430 -28 96 -26 105 24 123 142 53 314 97 457
117 157 22 217 28 290 26 72 -1 75 -2 79 -26z"/>
<path d="M3825 6254 c-232 -30 -311 -48 -468 -101 l-78 -27 7 -40 c3 -23 13
-59 21 -81 14 -38 27 -96 52 -231 13 -72 15 -229 2 -270 -5 -16 -14 -54 -21
-84 -25 -112 -74 -184 -220 -331 -213 -213 -220 -237 -199 -674 24 -496 9
-599 -96 -649 -34 -16 -46 -17 -83 -7 -68 18 -118 55 -263 197 -123 119 -146
137 -230 178 -138 66 -214 79 -345 55 -71 -12 -190 -65 -200 -88 -4 -9 -9 -97
-11 -196 -5 -185 14 -396 36 -418 8 -8 22 -7 49 3 91 33 229 53 400 57 202 5
287 -9 457 -77 68 -27 166 -82 226 -127 38 -28 99 -73 136 -99 110 -77 232
-180 332 -277 210 -204 316 -417 361 -728 6 -41 15 -104 20 -141 23 -161 8
-354 -42 -511 -11 -37 -19 -70 -16 -72 5 -6 129 -20 290 -35 166 -15 477 9
651 49 182 43 216 53 317 92 115 44 350 158 445 216 l60 37 -51 11 c-60 14
-109 42 -149 87 -39 43 -75 116 -75 151 0 47 -39 251 -55 290 -8 20 -24 41
-36 47 -30 17 -146 7 -288 -23 -149 -32 -222 -34 -321 -6 -188 51 -373 190
-548 409 -64 80 -182 250 -182 262 0 4 -13 26 -28 50 -39 59 -99 204 -123 295
-25 98 -24 207 1 303 35 130 45 152 155 338 82 140 189 222 288 222 98 0 166
-52 274 -212 97 -145 130 -184 169 -208 56 -35 85 -27 229 65 171 110 437 170
640 145 136 -17 209 -44 266 -99 47 -45 49 -50 49 -101 0 -64 -31 -119 -96
-167 -23 -18 -55 -49 -71 -70 -23 -31 -28 -46 -27 -92 1 -67 20 -107 131 -287
113 -181 207 -381 273 -574 40 -120 60 -223 60 -323 l0 -79 50 59 c138 160
323 492 393 703 46 140 69 217 78 265 4 22 12 67 18 100 52 278 52 622 1 870
-5 28 -14 73 -19 100 -5 28 -17 70 -25 94 -9 24 -16 52 -16 62 0 21 -31 89
-40 89 -17 0 -30 -88 -30 -199 0 -110 -19 -289 -36 -337 -25 -70 -100 -119
-166 -111 -72 10 -231 103 -338 200 -163 147 -240 195 -395 250 -146 50 -294
56 -735 27 -96 -7 -224 -9 -285 -6 -115 7 -233 23 -250 36 -5 3 -32 15 -60 25
-69 24 -199 113 -261 177 -73 74 -129 163 -150 233 -28 95 -29 235 -4 330 23
88 113 279 171 365 138 204 184 317 204 500 3 30 8 72 11 93 l6 37 -49 -1
c-26 -1 -93 -7 -148 -15z"/>
</g>
</svg>
